<svg width="467" height="313" viewBox="0 0 467 313" fill="none" xmlns="http://www.w3.org/2000/svg">
<path fill-rule="evenodd" clip-rule="evenodd" d="M14.2177 275.763C-29.4694 257.94 -67.3296 233.214 -96.0349 206.69L-110.122 193.673L-98.0631 178.754C-98.0631 178.754 -65.8689 138.966 -10.4202 99.4178C13.3446 28.7382 75.9171 -25.8151 154.881 -35.5544C230.744 -44.9111 301.981 -10.4689 343.13 47.9274C377.74 62.181 413.522 82.8345 450.143 111.381L466.32 123.99L453.697 140.157C426.492 175 398.136 203.295 369.208 225.932C345.513 296.745 282.881 351.429 203.814 361.181C127.116 370.64 55.1465 335.33 14.2177 275.763ZM-20.7359 159.323C-34.3799 171.062 -45.1998 181.719 -52.8471 189.733C-40.9415 199.269 -27.7096 208.38 -13.3677 216.73C-16.0211 207.221 -17.9997 197.398 -19.2444 187.306C-19.8464 182.425 -19.8153 181.228 -20.058 176.392C-8.29629 165.864 6.00405 154.144 22.5532 142.554C20.4105 156.597 19.6823 167.497 21.5055 182.28C32.238 269.298 111.678 331.22 198.793 320.476C237.094 315.752 270.543 297.763 295.089 271.692C266.596 284.953 238.021 293.633 209.886 298.532C187.183 302.486 170.853 303.209 147.707 302.754C115.553 294.399 87.2834 275.213 67.6188 248.875C110.709 261.493 153.635 266.7 202.845 258.128C246.196 250.579 290.508 232.733 333.659 201.317C349.106 190.071 364.404 177.085 379.458 162.212C389.116 152.666 398.674 142.344 408.104 131.204C404.898 128.919 401.701 126.702 398.511 124.549C398.177 124.323 397.841 124.098 397.507 123.873C388.87 118.078 380.293 112.76 371.78 107.894C374.479 117.373 376.507 127.168 377.803 137.234L377.939 138.319C378.205 140.476 377.985 138.968 378.18 141.118C364.56 155.313 350.715 167.87 336.721 178.905C336.776 178.472 336.828 178.038 336.879 177.604C338.321 165.262 338.777 156.219 337.189 143.345C326.457 56.3285 247.017 -5.59509 159.902 5.1494C119.806 10.0947 85.0278 29.5779 60.2119 57.6533C104.205 36.7794 155.765 21.6132 212.803 21.5057C245.774 29.3043 274.879 48.4458 295.137 75.048C184.676 43.2021 89.7451 81.5804 24.9541 124.636C7.42097 136.289 -7.90659 148.284 -20.7359 159.323Z" fill="url(#paint0_linear_163_14819)" fill-opacity="0.2"/>
<defs>
<linearGradient id="paint0_linear_163_14819" x1="43.4443" y1="2.731" x2="263.957" y2="239.472" gradientUnits="userSpaceOnUse">
<stop stop-color="#4238FF"/>
<stop offset="1" stop-color="#CC35FF"/>
</linearGradient>
</defs>
</svg>
